<?xml version="1.0" encoding="UTF-8" standalone="no"?>
<!-- Created with Inkscape (http://www.inkscape.org/) -->

<svg width="150" height="82" viewBox="0 0 150 82" version="1.1" id="svg2584"
   inkscape:version="1.1.1 (3bf5ae0d25, 2021-09-20)" sodipodi:docname="dorftitle.svg"
   xmlns:inkscape="http://www.inkscape.org/namespaces/inkscape"
   xmlns:sodipodi="http://sodipodi.sourceforge.net/DTD/sodipodi-0.dtd" xmlns:xlink="http://www.w3.org/1999/xlink"
   xmlns="http://www.w3.org/2000/svg" xmlns:svg="http://www.w3.org/2000/svg">
   <sodipodi:namedview id="namedview2586" pagecolor="#ffffff" bordercolor="#666666" borderopacity="1.0"
      inkscape:pageshadow="2" inkscape:pageopacity="0.0" inkscape:pagecheckerboard="true" inkscape:document-units="mm"
      showgrid="false" fit-margin-top="0" fit-margin-left="0" fit-margin-right="0" fit-margin-bottom="0"
      inkscape:zoom="1.0482005" inkscape:cx="420.24403" inkscape:cy="361.09504" inkscape:window-width="1920"
      inkscape:window-height="1017" inkscape:window-x="-8" inkscape:window-y="-8" inkscape:window-maximized="1"
      inkscape:current-layer="layer1" showborder="true" />
   <defs id="defs2581">
      <color-profile name="Agfa-:-Swop-Standard" xlink:href="file:///C:/WINDOWS/system32/spool/drivers/color/RSWOP.icm"
         id="color-profile5967" />
      <color-profile name="Agfa-:-Swop-Standard" xlink:href="file:///C:/WINDOWS/system32/spool/drivers/color/RSWOP.icm"
         id="color-profile5969" />
   </defs>
   <g inkscape:label="Calque 1" inkscape:groupmode="layer" id="layer1" transform="translate(181.11528,-6.1520008)">
      <path
         style="fill:#ffffff;stroke-width:0.0901432;stroke-linecap:round;stroke-linejoin:round;paint-order:fill markers stroke;fill-opacity:1"
         d="m 115.19743,294.24601 c -10.05405,-1.66086 -20.926041,-12.84296 -22.860274,-23.51234 -0.729984,-4.02664 -0.629902,-16.39194 0.175938,-21.73749 2.175489,-14.43111 8.924846,-25.89009 19.360846,-32.87062 8.40864,-5.62445 15.9943,-6.90137 23.6412,-3.9796 7.78441,2.9743 14.66071,11.9222 17.95048,23.35837 1.43243,4.97952 1.55288,17.72291 0.22673,23.98801 -1.96878,9.30105 -4.75262,16.74937 -8.19609,21.92909 -2.61414,3.93223 -8.84685,9.96973 -11.71389,11.34702 -3.88704,1.86727 -12.21689,2.52952 -18.58494,1.47756 z m 12.63802,-14.32406 c 2.85572,-0.74163 7.80048,-6.05668 10.26704,-11.03588 2.74209,-5.5354 3.48466,-10.06744 3.14138,-19.17239 -0.3099,-8.21942 -1.04533,-11.58283 -3.48752,-15.94988 -3.15683,-5.64493 -6.62237,-8.58883 -10.9611,-9.31118 -2.59531,-0.43209 -4.43899,0.44274 -7.91407,3.75523 -9.99204,9.52456 -15.08387,28.14188 -11.0509,40.4055 0.80999,2.46308 3.54587,7.22165 5.13496,8.93136 2.91398,3.13518 8.50814,4.0295 14.87021,2.37724 z"
         id="path2680" transform="matrix(0.26458333,0,0,0.26458333,-181.11528,6.1520008)" />
      <path
         style="fill:#ffffff;stroke-width:0.0901432;stroke-linecap:round;stroke-linejoin:round;paint-order:fill markers stroke;fill-opacity:1"
         d="m 34.267271,298.60765 c -0.567226,-0.22873 -1.15063,-0.80543 -1.296453,-1.28153 -0.70953,-2.31661 -1.447641,-24.75218 -2.468763,-75.0404 l -0.295418,-14.54874 1.560132,-0.86276 c 2.438834,-1.34867 8.823113,-1.91006 18.319069,-1.61085 9.649732,0.30406 14.199956,1.08523 18.246597,3.13254 5.930242,3.00028 9.524679,7.47711 11.143663,13.87934 0.859702,3.39966 0.969342,4.97085 0.795335,11.39776 -0.311964,11.52249 -0.898755,12.57515 -16.039936,28.77448 l -1.647495,1.76263 6.720298,7.16721 c 8.454946,9.01723 11.548553,12.72878 11.548553,13.85537 0,1.04012 -3.39166,5.48147 -4.734953,6.20038 -2.248842,1.20354 -4.400041,-0.018 -13.321039,-7.56418 -8.62905,-7.29922 -14.073937,-11.49734 -14.911861,-11.49734 -1.204595,0 -1.406706,3.29282 -0.921837,15.01874 0.238505,5.76794 0.394716,10.51232 0.347136,10.54306 -1.562072,1.00912 -11.002447,1.49716 -13.043028,0.67429 z M 54.229298,249.037 c 4.275707,-2.85977 8.695906,-7.39743 9.935332,-10.19936 1.140678,-2.57869 1.653073,-6.68333 1.206255,-9.66292 -0.275396,-1.83648 -0.799778,-2.74751 -2.796912,-4.85918 -3.612376,-3.81956 -3.972753,-3.93785 -11.996527,-3.93785 h -6.949392 l 0.220595,1.07327 c 0.121327,0.59029 0.348705,4.18574 0.505285,7.98988 0.345598,8.39636 1.09852,16.78464 1.721916,19.18378 0.911675,3.50859 3.340563,3.63143 8.153448,0.41238 z"
         id="path2758" transform="matrix(0.26458333,0,0,0.26458333,-181.11528,6.1520008)" />
      <path
         style="fill:#ffffff;stroke-width:0.0901432;stroke-linecap:round;stroke-linejoin:round;paint-order:fill markers stroke;fill-opacity:1"
         d="m 228.55776,298.08652 c -0.94761,-1.35291 -1.02387,-7.20774 -0.31633,-24.28394 1.53325,-37.00384 1.55813,-40.54568 0.28488,-40.54568 -0.85884,0 -5.24121,4.73331 -13.35398,14.42336 -4.11561,4.91578 -8.19011,9.47717 -9.05444,10.13642 -1.4505,1.10635 -1.96172,1.19865 -6.63881,1.19865 h -5.0673 l -3.62472,-7.15613 c -4.73632,-9.3507 -6.55805,-11.49882 -7.78638,-9.18139 -0.24336,0.45912 -0.6923,4.37655 -0.99766,8.7054 -1.62509,23.03779 -2.9894,38.7143 -3.66741,42.14019 -0.30888,1.56074 -2.46604,2.69856 -5.11615,2.69856 -1.82871,0 -7.93683,-1.75887 -7.93506,-2.28496 0.006,-1.89663 2.65975,-41.60581 3.59247,-53.76348 1.66868,-21.75046 2.48569,-28.97203 3.35254,-29.63306 1.92114,-1.465 11.33847,-1.0479 13.13943,0.58194 1.01933,0.92248 3.32336,4.85489 8.77657,14.97938 5.25464,9.75583 6.69473,11.9252 7.91632,11.9252 1.25981,0 5.66709,-4.24257 17.96282,-17.29154 l 9.32657,-9.89791 h 6.51255 c 4.78472,0 6.75142,0.17466 7.4129,0.65835 0.81062,0.59274 0.92059,1.51587 1.10343,9.2625 0.39905,16.90679 -1.76171,63.2481 -3.41855,73.3169 -0.53932,3.27751 -0.58242,3.34969 -2.34292,3.92455 -0.98642,0.3221 -3.47668,0.726 -5.5339,0.89757 -3.55889,0.2968 -3.77858,0.25745 -4.52687,-0.81088 z"
         id="path2797" transform="matrix(0.26458333,0,0,0.26458333,-181.11528,6.1520008)" />
      <path
         style="fill:#ffffff;stroke-width:0.0901432;stroke-linecap:round;stroke-linejoin:round;paint-order:fill markers stroke;fill-opacity:1"
         d="m 212.36812,179.36943 c -1.22856,-0.77913 -8.71246,-7.70171 -16.63088,-15.38351 -7.91842,-7.6818 -20.48046,-19.83081 -27.91566,-26.99779 -7.43519,-7.16699 -13.83848,-13.6496 -14.22952,-14.40581 -1.02755,-1.98705 -0.92204,-2.96069 1.22528,-11.30703 6.64061,-25.811134 8.89136,-34.816444 11.89567,-47.594724 5.31038,-22.586723 6.28617,-25.259643 9.85147,-26.985575 6.08353,-2.944989 74.77329,-21.907744 79.35754,-21.907744 0.91206,0 2.52246,1.054256 5.52915,3.619677 6.38037,5.44398 27.87747,26.121367 42.43977,40.821478 11.86987,11.982202 15.94291,16.595866 15.94291,18.05906 0,0.305681 -1.60594,6.4104 -3.56875,13.56604 -1.96281,7.155639 -6.02425,22.541478 -9.02542,34.190758 -5.61618,21.79959 -7.52756,28.89307 -8.42032,31.24924 -0.93064,2.45613 -2.35963,3.42628 -7.55384,5.12834 -7.77409,2.54744 -9.98314,3.14595 -36.30475,9.8363 -13.51125,3.43425 -27.13497,6.98295 -30.27494,7.88599 -7.18931,2.06762 -9.35034,2.10714 -12.31771,0.2253 z m 41.59919,-32.34303 c 0.92969,-0.34391 0.71693,-0.58607 -2.0836,-2.37149 -5.75031,-3.66598 -7.34036,-7.65726 -7.03207,-17.65153 l 0.092,-2.9813 h 7.37014 c 11.00118,0 13.89022,-0.84073 18.5617,-5.40154 5.57071,-5.43877 7.73494,-10.85804 7.33969,-18.37881 -0.25391,-4.831543 -1.23275,-7.921658 -3.42177,-10.802204 -2.01356,-2.649655 -2.67994,-4.506323 -3.38095,-9.419858 -0.88558,-6.207343 -1.40158,-8.034947 -3.26101,-11.550033 -2.04423,-3.864432 -5.49055,-7.239398 -10.27411,-10.061397 -2.20005,-1.29789 -5.39322,-3.681978 -7.09591,-5.297972 -5.6881,-5.398431 -10.2319,-6.970406 -20.14802,-6.970406 -9.78038,0 -16.25492,2.180626 -21.09136,7.10358 -5.05366,5.144063 -6.56189,9.070994 -8.46967,22.052213 -0.59745,4.065257 -1.0716,5.099315 -4.28477,9.344505 -2.84081,3.753232 -4.1026,7.472998 -4.55097,13.416255 -0.64588,8.561457 1.40421,14.789807 6.38637,19.402407 5.91814,5.47916 9.24663,6.56326 20.15109,6.56326 h 7.49759 l 0.33631,2.69176 c 0.5505,4.40598 -0.0237,9.80734 -1.35072,12.70592 -0.93789,2.04862 -1.78764,2.99823 -4.18507,4.67687 -3.26983,2.28948 -3.8377,3.07697 -2.50965,3.48018 1.31271,0.39855 34.22256,-0.11307 35.4048,-0.55041 z"
         id="path2836" transform="matrix(0.26458333,0,0,0.26458333,-181.11528,6.1520008)" />
      <path
         style="fill:#ffffff;stroke-width:0.0901432;stroke-linecap:round;stroke-linejoin:round;paint-order:fill markers stroke;fill-opacity:1"
         d="m 36.015077,181.83227 c -2.71323,-0.5378 -2.742925,-0.74251 -4.303756,-29.66672 -0.276069,-5.11591 -1.021902,-15.74127 -1.657409,-23.6119 C 29.418406,120.68302 28.339443,106.62321 27.656218,97.309628 26.972993,87.996047 26.101771,77.800002 25.72017,74.651749 22.567881,48.644991 21.432905,26.043515 22.962494,19.736429 c 0.34122,-1.406983 1.707766,-1.915312 7.654835,-2.847452 9.940177,-1.558019 37.607785,-0.796779 53.966084,1.48481 7.959751,1.110194 13.862577,2.763294 19.524237,5.467811 10.37315,4.955145 17.72116,11.007582 22.75013,18.738914 3.63253,5.584493 8.91887,16.629195 10.99985,22.981836 2.99384,9.139377 3.3383,12.083342 3.32393,28.408224 -0.0141,16.041178 -0.38695,19.354728 -3.16311,28.111718 -2.48798,7.84797 -9.14762,22.2902 -13.33825,28.92559 -4.68602,7.41978 -15.86622,15.33617 -32.172196,22.78022 -8.987155,4.10284 -16.909461,6.26053 -27.396414,7.46159 -5.438615,0.62287 -26.741373,1.04941 -29.096513,0.58258 z m 38.636672,-34.93053 c 19.039168,-6.27347 29.402881,-19.36387 31.073641,-39.24907 0.2985,-3.55268 0.42677,-11.061482 0.29485,-17.259657 -0.2534,-11.905576 -0.70658,-14.332912 -3.5966,-19.264364 C 100.55941,67.947578 96.084285,63.39044 92.184736,60.702096 82.784564,54.22163 72.131859,50.7799 59.732362,50.217219 c -5.105952,-0.231705 -6.056442,-0.168063 -5.85868,0.392282 0.33739,0.955974 1.45584,11.224881 3.120468,28.650183 1.718222,17.986331 2.754585,25.997396 5.293337,40.917446 1.046372,6.14945 2.43082,14.66172 3.076552,18.91617 0.645732,4.25445 1.315343,8.10355 1.488024,8.55354 0.394892,1.02908 3.240234,0.75726 7.799686,-0.7451 z"
         id="path2875" transform="matrix(0.26458333,0,0,0.26458333,-181.11528,6.1520008)" />
      <path
         style="fill:#ffffff;stroke-width:0.0901432;stroke-linecap:round;stroke-linejoin:round;paint-order:fill markers stroke;fill-opacity:1"
         d="m 253.72661,295.32488 c -2.46646,-0.63929 -2.68057,-0.92332 -2.31723,-3.07391 0.9921,-5.87217 19.912,-65.99975 24.56098,-78.05495 1.65969,-4.30371 1.79734,-4.39415 6.73545,-4.42506 4.17551,-0.0261 5.21373,0.67468 7.63983,5.15706 4.18189,7.72632 8.14882,20.21285 14.23372,44.80283 3.23867,13.08795 6.65802,29.0362 6.66488,31.08586 0.002,0.66389 -0.57723,1.39326 -1.61784,2.03639 -2.10213,1.29919 -6.74833,2.89185 -8.43626,2.89185 -1.15824,0 -1.43785,-0.31034 -2.25635,-2.50429 -0.51384,-1.37736 -1.72362,-5.50945 -2.68841,-9.18241 -0.96478,-3.67296 -2.15761,-7.59039 -2.65074,-8.70539 l -0.8966,-2.02729 h -3.4252 c -4.91544,0 -15.15738,2.1514 -16.58912,3.48468 -1.44817,1.34857 -3.87203,6.16086 -5.69289,11.30257 -2.0215,5.70826 -2.47111,6.56109 -3.62132,6.86903 -1.88395,0.50437 -8.15918,0.7276 -9.6429,0.34303 z m 30.28316,-33.575 c 1.941,-0.59188 3.76295,-1.44689 4.04879,-1.90004 1.16781,-1.85136 -3.0935,-17.44929 -5.10151,-18.6734 -1.2245,-0.74646 -1.9607,0.41823 -3.7036,5.8592 -2.38728,7.4526 -3.52387,14.4632 -2.50932,15.47775 0.62704,0.62704 3.79833,0.29378 7.26564,-0.76351 z"
         id="path2914" transform="matrix(0.26458333,0,0,0.26458333,-181.11528,6.1520008)" />
      <path
         style="fill:#ffffff;stroke-width:0.0901432;stroke-linecap:round;stroke-linejoin:round;paint-order:fill markers stroke;fill-opacity:1"
         d="m 325.08094,296.10157 c -3.10864,-1.62414 -3.41073,-5.76699 -3.50309,-48.04079 l -0.0745,-34.08944 3.57756,-0.57657 c 1.96766,-0.31712 4.70891,-0.59292 6.09168,-0.61289 2.4575,-0.0355 2.54882,0.0128 4.05457,2.14506 0.84724,1.19977 4.07521,6.94175 7.17326,12.75997 11.12494,20.89294 21.35432,38.00654 22.7178,38.00654 0.21841,0 0.54768,-0.48297 0.73172,-1.07327 0.18404,-0.5903 0.49446,-12.66456 0.68981,-26.8317 0.19535,-14.16714 0.52118,-26.13175 0.72407,-26.58802 0.20289,-0.45627 1.2591,-1.0889 2.34713,-1.40584 2.4869,-0.72443 9.62266,-0.80231 10.31401,-0.11257 0.56544,0.56411 -0.11621,50.60313 -0.94409,69.30566 -0.59233,13.38103 -0.94647,14.12607 -7.39168,15.55033 -3.33454,0.73687 -4.32973,0.46116 -6.54253,-1.81248 -2.28301,-2.34579 -9.72195,-13.49966 -16.59716,-24.88558 -2.69311,-4.46002 -6.63792,-10.89963 -8.76624,-14.31024 l -3.86967,-6.2011 -0.35548,13.11772 c -0.19551,7.21474 -0.48719,18.08754 -0.64818,24.16178 l -0.29271,11.04406 -2.09461,0.28488 c -5.47962,0.74526 -6.19924,0.76138 -7.3417,0.16449 z"
         id="path2953" transform="matrix(0.26458333,0,0,0.26458333,-181.11528,6.1520008)" />
      <path
         style="fill:#ffffff;stroke-width:0.0901432;stroke-linecap:round;stroke-linejoin:round;paint-order:fill markers stroke;fill-opacity:1"
         d="m 409.83192,296.20129 c -0.68413,-0.53814 -1.37129,-1.67928 -1.53424,-2.54786 -0.16232,-0.86525 -0.0614,-6.0613 0.2243,-11.54678 0.80637,-15.48301 1.51731,-47.15025 1.17278,-52.23851 l -0.31021,-4.58127 -6.15478,-0.58776 c -11.39939,-1.08859 -12.26662,-1.63998 -12.37654,-7.8692 -0.0995,-5.63982 -0.3752,-5.51537 12.21844,-5.51537 14.97215,0 35.05056,1.25627 38.69929,2.42135 2.32298,0.74176 3.28706,2.11421 3.19297,4.5455 -0.10883,2.81186 -0.98868,5.33793 -2.05871,5.91059 -0.48087,0.25736 -4.53147,0.88043 -9.00134,1.38462 -4.46986,0.50418 -8.33008,1.04219 -8.57827,1.19558 -1.08393,0.66991 -2.07464,11.92042 -2.69229,30.57363 -0.64496,19.47778 -1.63249,33.26179 -2.65572,37.06863 -0.39948,1.48625 -0.76042,1.8491 -2.2512,2.26313 -3.00285,0.83397 -6.49674,0.62318 -7.89448,-0.47628 z"
         id="path2992" transform="matrix(0.26458333,0,0,0.26458333,-181.11528,6.1520008)" />
      <path
         style="fill:#ffffff;stroke-width:0.0901432;stroke-linecap:round;stroke-linejoin:round;paint-order:fill markers stroke;fill-opacity:1"
         d="m 458.49684,295.91399 c -1.39729,-0.40438 -1.70251,-2.02535 -2.29839,-12.2063 -0.64804,-11.07241 -0.86582,-72.09863 -0.25946,-72.70941 0.21801,-0.21959 2.63077,-0.4724 5.36169,-0.56179 l 4.96532,-0.16254 0.51317,1.34974 c 0.90785,2.38781 1.37971,16.33283 1.71256,50.61145 l 0.32538,33.50981 -2.34417,0.004 c -1.2893,0.002 -3.41744,0.0964 -4.72921,0.20924 -1.31178,0.11279 -2.77288,0.0928 -3.24689,-0.0444 z"
         id="path3031" transform="matrix(0.26458333,0,0,0.26458333,-181.11528,6.1520008)" />
      <path
         style="fill:#ffffff;stroke-width:0.0901432;stroke-linecap:round;stroke-linejoin:round;paint-order:fill markers stroke;fill-opacity:1"
         d="m 487.26365,295.63409 -1.19252,-0.64025 0.0792,-15.48496 c 0.0452,-8.83423 0.39909,-19.58242 0.82396,-25.02512 0.40959,-5.24709 1.07694,-16.30175 1.48299,-24.56591 0.76342,-15.53734 0.93752,-17.50358 1.73671,-19.6147 0.84192,-2.22401 4.92021,-3.28364 8.51782,-2.21312 3.20611,0.95402 3.28064,1.38196 3.31213,19.01844 0.0268,15.03547 0.26615,19.50466 1.0444,19.50466 0.94362,0 4.80257,-4.10404 12.32052,-13.103 9.73279,-11.65013 17.12248,-19.77624 18.96567,-20.85569 1.31698,-0.77128 1.46717,-0.76101 3.42713,0.23435 2.20528,1.11995 5.29189,4.20872 5.29189,5.2956 0,1.68798 -14.64733,20.64071 -26.02585,33.67582 -4.30315,4.92965 -6.8877,8.34643 -6.8877,9.10554 0,0.62841 2.83791,3.12105 6.88416,6.0466 10.46314,7.56515 15.12012,11.27144 18.00443,14.32895 4.7223,5.0059 4.78782,6.01767 0.67156,10.37054 l -2.58822,2.73701 -2.30356,-1.33083 c -1.26696,-0.73195 -4.98674,-3.16652 -8.26617,-5.41015 -19.60822,-13.41501 -20.83006,-14.09187 -21.87217,-12.11651 -0.68289,1.29446 -1.43288,5.57644 -1.98424,11.32894 -0.57791,6.02936 -1.13634,8.12985 -2.28284,8.58675 -1.73354,0.69082 -7.94867,0.77703 -9.15934,0.12704 z"
         id="path3070" transform="matrix(0.26458333,0,0,0.26458333,-181.11528,6.1520008)" />
      <path
         style="fill:#ffffff;stroke-width:0.0901432;stroke-linecap:round;stroke-linejoin:round;paint-order:fill markers stroke;fill-opacity:1"
         d="m 458.48085,177.87928 c -7.17296,-0.75722 -8.13749,-2.24129 -7.45845,-11.476 0.2382,-3.23955 0.87278,-16.08614 1.41015,-28.54797 1.47821,-34.27954 2.97257,-60.368721 3.57926,-62.488049 0.11266,-0.393531 0.53937,-7.906407 0.94826,-16.695279 1.77886,-38.236353 1.97682,-39.840051 5.15535,-41.762837 1.43262,-0.866634 2.43803,-0.925344 14.89256,-0.869637 13.82504,0.06184 25.24691,0.656395 35.5371,1.849856 3.27943,0.38035 10.57765,1.140815 16.21827,1.689923 10.83644,1.054914 15.85586,1.9045 18.096,3.062921 2.85077,1.474192 4.00301,5.61913 4.84412,17.425612 0.87739,12.315843 0.52999,12.884808 -7.85945,12.871923 -2.91611,-0.0045 -11.41964,-0.322795 -18.89674,-0.707369 -18.90906,-0.972562 -32.12494,-0.958965 -33.11798,0.03407 -0.41227,0.412271 -0.74958,0.81228 -0.74958,0.888909 0,0.07663 -0.19888,1.188228 -0.44194,2.47022 -0.77205,4.071954 -1.4715,18.591152 -1.54308,32.031024 -0.0381,7.152668 0.0337,13.107793 0.1595,13.233603 0.42365,0.42365 4.95036,1.12821 18.30699,2.8494 18.40901,2.37225 21.72507,3.18882 23.41333,5.76544 1.03211,1.5752 1.39449,10.25804 0.75646,18.12549 -0.80182,9.88718 -1.47845,10.43175 -12.9848,10.45047 -4.32885,0.007 -12.92655,-0.17826 -19.106,-0.4118 -8.311,-0.3141 -11.50382,-0.28095 -12.26676,0.12736 -1.69762,0.90854 -2.14194,3.49626 -3.93138,22.89655 -1.43054,15.50917 -1.64908,16.24115 -5.13838,17.21023 -2.05068,0.56953 -14.34117,0.55461 -19.82281,-0.024 z"
         id="path3109" transform="matrix(0.26458333,0,0,0.26458333,-181.11528,6.1520008)" />
      <path
         style="fill:#ffffff;stroke-width:0.0901432;stroke-linecap:round;stroke-linejoin:round;paint-order:fill markers stroke;fill-opacity:1"
         d="m 339.17442,180.34421 c -0.61427,-0.99392 -2.56654,-29.68385 -3.58911,-52.74457 -0.79054,-17.82797 -2.49193,-91.837534 -2.31751,-100.810396 0.18981,-9.764484 -0.0196,-9.39539 6.2144,-10.952958 11.61305,-2.901524 36.24174,-4.307204 51.42584,-2.935125 9.35124,0.845005 13.53128,2.536217 20.36704,8.240336 5.01089,4.181348 12.1652,11.614846 14.0724,14.621549 3.69124,5.81925 7.07504,23.685574 7.04859,37.216251 -0.0146,7.466587 -0.3661,9.00976 -3.53187,15.505684 -6.13847,12.595629 -17.14213,26.133809 -26.01227,32.003789 -1.0597,0.70127 -1.92672,1.46465 -1.92672,1.69639 0,0.77488 15.51572,19.39727 22.58582,27.10812 3.98443,4.34553 8.07945,9.38102 8.88043,10.91992 0.81668,1.56908 0.73553,4.08333 -0.17423,5.39834 -1.43986,2.08123 -6.251,6.68294 -9.20885,8.80799 -4.50532,3.23681 -5.35786,3.21607 -9.86538,-0.24005 -9.09133,-6.97072 -25.88875,-23.63679 -34.50891,-34.23904 -2.10561,-2.58977 -4.3855,-5.2238 -5.06643,-5.8534 -1.10225,-1.01917 -1.27199,-1.05622 -1.54768,-0.3378 -0.1703,0.4438 -0.0648,8.25715 0.23448,17.36299 0.29927,9.10585 0.37935,18.16598 0.17795,20.13364 -0.35645,3.48244 -0.41057,3.59911 -2.03571,4.38834 -2.27819,1.10639 -9.92596,3.04375 -16.56849,4.1972 -5.69486,0.98889 -14.17611,1.28569 -14.65379,0.5128 z M 377.709,101.90087 c 9.77482,-5.094981 17.6374,-13.048054 20.23508,-20.467966 1.58472,-4.526558 2.00119,-12.646302 0.935,-18.229346 -1.21083,-6.34044 -2.50185,-9.124735 -5.77541,-12.455636 -3.38697,-3.446291 -5.1308,-4.122521 -12.81853,-4.970818 -5.50887,-0.607874 -9.51916,-0.288022 -10.45132,0.83357 -1.3579,1.633858 -0.9255,36.646452 0.6201,50.211519 0.82305,7.223507 1.81201,7.915797 7.25508,5.078677 z"
         id="path3148" transform="matrix(0.26458333,0,0,0.26458333,-181.11528,6.1520008)" />
   </g>
</svg>